<?xml version="1.0" standalone="no"?>
<!DOCTYPE svg PUBLIC "-//W3C//DTD SVG 20010904//EN"
 "http://www.w3.org/TR/2001/REC-SVG-20010904/DTD/svg10.dtd">
<svg version="1.0" xmlns="http://www.w3.org/2000/svg"
 width="600.000000pt" height="600.000000pt" viewBox="0 0 600.000000 600.000000"
 preserveAspectRatio="xMidYMid meet">
<metadata>
</metadata>
<g transform="translate(0.000000,600.000000) scale(0.200000,-0.200000)"
fill="#000000" stroke="none">
<path d="M1230 1890 c-18 -18 -20 -33 -20 -160 0 -195 -24 -180 288 -180 208
0 251 2 270 16 21 14 22 22 22 164 0 142 -1 150 -22 164 -19 14 -62 16 -270
16 -235 0 -249 -1 -268 -20z m260 -160 l0 -151 -122 3 -123 3 -3 134 c-1 74 0
141 2 148 4 10 36 13 126 13 l120 0 0 -150z m270 131 c13 -25 13 -237 0 -262
-10 -17 -22 -19 -129 -19 l-119 0 1 150 1 150 118 0 c106 0 118 -2 128 -19z"/>
<path d="M1321 1741 c-35 -102 -37 -111 -17 -111 8 0 17 14 21 30 5 25 12 30
35 30 22 0 30 -6 39 -30 10 -30 31 -41 31 -17 0 23 -59 182 -68 185 -5 1 -23
-38 -41 -87z m52 -3 c7 -26 3 -32 -17 -25 -9 4 -12 14 -9 26 7 27 19 27 26 -1z"/>
<path d="M1630 1801 c0 -28 -3 -31 -30 -31 -41 0 -40 -28 1 -32 l31 -3 -31
-42 c-17 -24 -31 -47 -31 -53 0 -20 20 -9 46 25 l26 35 22 -32 c22 -33 46 -48
46 -29 0 6 -14 30 -31 54 l-31 42 31 3 c42 4 42 32 1 32 -27 0 -30 3 -28 26 2
15 -3 29 -9 31 -9 3 -13 -6 -13 -26z"/>
<path d="M578 1444 c-5 -4 -8 -45 -8 -91 l0 -83 58 0 c31 0 65 6 74 14 41 30
44 108 7 142 -20 18 -118 32 -131 18z m106 -40 c20 -20 21 -78 1 -94 -8 -6
-29 -13 -47 -13 l-32 -2 -1 63 -2 62 33 0 c18 0 40 -7 48 -16z"/>
<path d="M780 1360 l0 -90 45 -1 c25 -1 50 -2 57 -3 6 -1 13 5 16 12 2 8 -10
12 -42 12 -44 0 -46 1 -46 30 0 29 1 30 41 28 27 -2 43 2 46 10 3 8 -9 12 -41
12 -42 0 -46 2 -46 25 0 23 4 25 45 25 33 0 45 4 45 15 0 12 -13 15 -60 15
l-60 0 0 -90z"/>
<path d="M940 1380 c0 -62 3 -74 25 -95 26 -27 54 -31 88 -14 33 18 37 28 37
107 0 57 -3 72 -15 72 -12 0 -15 -14 -15 -68 0 -70 -10 -92 -41 -92 -35 0 -49
28 -49 96 0 50 -3 64 -15 64 -12 0 -15 -14 -15 -70z"/>
<path d="M1120 1435 c0 -10 10 -15 33 -15 l32 0 0 -77 c0 -63 3 -78 15 -78 12
0 16 17 18 78 l3 77 29 0 c20 0 30 5 30 15 0 12 -16 15 -80 15 -64 0 -80 -3
-80 -15z"/>
<path d="M1334 1442 c-6 -4 -16 -17 -22 -29 -16 -29 11 -62 58 -72 26 -5 35
-12 35 -26 0 -16 -7 -20 -30 -19 -16 0 -39 2 -49 5 -33 7 -28 -18 5 -30 47
-16 67 -14 94 13 40 40 15 76 -60 88 -12 2 -20 11 -20 23 0 17 6 20 48 18 26
-1 47 3 47 8 0 23 -80 39 -106 21z"/>
<path d="M1505 1425 c-19 -18 -25 -35 -25 -68 0 -69 54 -111 117 -90 28 10 40
41 13 34 -49 -13 -59 -12 -79 8 -25 25 -27 58 -5 90 15 20 22 23 60 17 46 -6
58 6 25 24 -34 18 -80 12 -106 -15z"/>
<path d="M1670 1354 c0 -72 3 -95 13 -92 6 3 13 22 15 44 l3 40 46 -1 47 -1 0
-40 c1 -28 5 -39 16 -39 12 0 16 18 18 93 3 85 1 93 -15 90 -13 -2 -18 -13
-18 -38 -1 -34 -2 -35 -48 -38 l-47 -3 0 40 c0 30 -4 41 -15 41 -12 0 -15 -17
-15 -96z"/>
<path d="M1879 1448 c0 -2 -1 -43 -2 -93 -1 -72 2 -90 14 -90 11 0 14 14 13
63 0 34 2 62 5 61 3 0 26 -28 51 -62 25 -34 50 -61 55 -62 6 0 11 39 13 93 2
77 0 92 -13 92 -12 0 -15 -13 -15 -66 l0 -67 -50 67 c-42 55 -67 78 -71 64z"/>
<path d="M2080 1354 c0 -72 3 -95 13 -92 8 3 13 34 15 96 2 77 0 92 -13 92
-12 0 -15 -16 -15 -96z"/>
<path d="M2160 1360 l0 -90 45 -1 c25 -1 51 -2 58 -3 6 -1 12 6 12 14 0 12
-10 14 -42 12 l-43 -4 0 81 c0 65 -3 81 -15 81 -12 0 -15 -17 -15 -90z"/>
<path d="M2317 1443 c-4 -3 -7 -44 -7 -90 l0 -83 45 -2 c25 -1 53 -2 62 -2 9
-1 18 4 20 11 3 8 -12 13 -44 15 -44 3 -48 5 -48 28 0 22 4 25 39 25 22 0 41
5 43 13 3 8 -9 12 -41 12 -42 0 -46 2 -46 25 0 23 3 25 50 25 38 0 50 4 50 15
0 12 -13 15 -58 15 -32 0 -62 -3 -65 -7z"/>
</g>
</svg>